HIERARCHY
ROOT Pelvis
{
	OFFSET 0.000000 0.000000 0.000000
	CHANNELS 6 Xposition Yposition Zposition Xrotation Yrotation Zrotation
	JOINT LeftUpLeg_virtual
	{
		OFFSET 0.000000 0.000000 0.000000
		CHANNELS 3 Xrotation Yrotation Zrotation
		JOINT LeftUpLeg
		{
			OFFSET 18.735201 -5.666702 -4.541200
			CHANNELS 3 Xrotation Yrotation Zrotation
			JOINT LeftLeg
			{
				OFFSET -0.021200 -31.938179 0.493100
				CHANNELS 3 Xrotation Yrotation Zrotation
				JOINT LeftFoot
				{
					OFFSET 0.021200 -31.938179 -4.336299
					CHANNELS 3 Xrotation Yrotation Zrotation
					JOINT LeftToeBase
					{
						OFFSET 0.943001 -26.722000 15.023500
						CHANNELS 3 Xrotation Yrotation Zrotation
						End Site
						{
							OFFSET 0 0 0
						}
					}
				}
			}
		}
	}
	JOINT RightUpLeg_virtual
	{
		OFFSET 0.000000 0.000000 0.000000
		CHANNELS 3 Xrotation Yrotation Zrotation
		JOINT RightUpLeg
		{
			OFFSET -18.735201 -5.666702 -4.541200
			CHANNELS 3 Xrotation Yrotation Zrotation
			JOINT RightLeg
			{
				OFFSET 0.018946 -31.938133 0.493100
				CHANNELS 3 Xrotation Yrotation Zrotation
				JOINT RightFoot
				{
					OFFSET -0.018946 -31.938126 -4.336299
					CHANNELS 3 Xrotation Yrotation Zrotation
					JOINT RightToeBase
					{
						OFFSET -0.943001 -26.722004 15.023500
						CHANNELS 3 Xrotation Yrotation Zrotation
						End Site
						{
							OFFSET 0 0 0
						}
					}
				}
			}
		}
	}
	JOINT Hips_virtual
	{
		OFFSET 0.000000 0.000000 0.000000
		CHANNELS 3 Xrotation Yrotation Zrotation
		JOINT Hips
		{
			OFFSET -0.000000 -0.000000 -0.000000
			CHANNELS 3 Xrotation Yrotation Zrotation
			JOINT Spine
			{
				OFFSET 0.000000 10.199997 -0.299500
				CHANNELS 3 Xrotation Yrotation Zrotation
				JOINT Spine1
				{
					OFFSET 0.000000 11.900002 -1.516600
					CHANNELS 3 Xrotation Yrotation Zrotation
					JOINT Spine2
					{
						OFFSET 0.000000 13.600006 -2.842500
						CHANNELS 3 Xrotation Yrotation Zrotation
						JOINT Neck_virtual
						{
							OFFSET 0.000000 0.000000 0.000000
							CHANNELS 3 Xrotation Yrotation Zrotation
							JOINT Neck
							{
								OFFSET 0.000000 9.624100 -2.890100
								CHANNELS 3 Xrotation Yrotation Zrotation
								JOINT Head
								{
									OFFSET 0.000000 14.068802 -1.351900
									CHANNELS 3 Xrotation Yrotation Zrotation
									End Site
									{
										OFFSET 0 0 0
									}
								}
							}
						}
						JOINT LeftShoulder_virtual
						{
							OFFSET 0.000000 0.000000 0.000000
							CHANNELS 3 Xrotation Yrotation Zrotation
							JOINT LeftShoulder
							{
								OFFSET 15.263000 10.923401 -0.547700
								CHANNELS 3 Xrotation Yrotation Zrotation
								JOINT LeftArm
								{
									OFFSET 25.438599 -2.830597 -13.032500
									CHANNELS 3 Xrotation Yrotation Zrotation
									JOINT LeftForeArm
									{
										OFFSET 29.960503 0.000000 0.000000
										CHANNELS 3 Xrotation Yrotation Zrotation
										JOINT LeftHand
										{
											OFFSET 27.849251 0.000000 0.000000
											CHANNELS 3 Xrotation Yrotation Zrotation
											End Site
											{
												OFFSET 0 0 0
											}
										}
									}
								}
							}
						}
						JOINT RightShoulder_virtual
						{
							OFFSET 0.000000 0.000000 0.000000
							CHANNELS 3 Xrotation Yrotation Zrotation
							JOINT RightShoulder
							{
								OFFSET -15.263000 10.923401 -0.547700
								CHANNELS 3 Xrotation Yrotation Zrotation
								JOINT RightArm
								{
									OFFSET -25.438599 -2.830597 -13.032500
									CHANNELS 3 Xrotation Yrotation Zrotation
									JOINT RightForeArm
									{
										OFFSET -29.960503 0.000000 0.000000
										CHANNELS 3 Xrotation Yrotation Zrotation
										JOINT RightHand
										{
											OFFSET -27.849251 0.000000 0.000000
											CHANNELS 3 Xrotation Yrotation Zrotation
											End Site
											{
												OFFSET 0 0 0
											}
										}
									}
								}
							}
						}
					}
				}
			}
		}
	}
}
MOTION
Frames: 8
Frame Time: 0.03333333
-1.290817 86.819824 3.983997 0.000000 0.000000 0.000000 -1.734052 -17.016484 -1.789527 -39.131926 15.920399 16.911082 54.575315 0.162195 8.626916 -16.006562 1.899370 -9.951013 0.000000 0.000000 0.000000 -1.734052 -17.016484 -1.789527 -30.476106 -21.588169 -16.585707 51.166771 -1.890352 -10.330473 -20.490462 -3.472707 14.590285 0.000000 0.000000 0.000000 -1.734052 -17.016484 -1.789527 0.000000 0.000000 0.000000 3.888598 2.352982 -0.517328 2.929113 2.056186 -0.138334 0.000000 0.000000 0.000000 2.894090 2.112998 -0.161224 0.457476 0.085649 2.100553 0.000000 0.000000 0.000000 2.894090 2.112998 -0.161224 1.375475 -4.867615 21.431201 -66.234277 -43.614839 -65.822028 -0.000003 -37.698369 -0.000001 0.000000 0.000000 0.000000 2.894090 2.112998 -0.161224 0.445408 -0.777911 -3.588726 -96.770653 65.301157 91.341732 -0.000010 28.227469 0.000013 0.000000 0.000000 0.000000 
-1.274374 86.830017 3.970840 0.000000 0.000000 0.000000 -1.624739 -16.933198 -1.821136 -39.341777 16.018779 16.850729 54.551819 0.095464 8.906482 -15.941136 1.906338 -9.995986 0.000000 0.000000 0.000000 -1.624739 -16.933198 -1.821136 -30.301021 -21.244479 -16.243710 50.945835 -2.392563 -10.322981 -20.370095 -3.512423 14.820214 0.000000 0.000000 0.000000 -1.624739 -16.933198 -1.821136 0.000000 0.000001 0.000000 3.806677 2.305117 -0.554916 2.860568 2.025400 -0.161203 0.000000 0.000000 0.000000 2.825895 2.080957 -0.184224 0.407906 0.099305 2.087907 0.000000 0.000000 0.000000 2.825895 2.080957 -0.184224 1.196434 -4.307697 21.316488 -66.220289 -44.104707 -66.348751 0.000001 -37.562338 0.000002 0.000000 0.000000 0.000000 2.825895 2.080957 -0.184224 0.420648 -0.879266 -3.679279 -97.395725 65.635359 92.333434 0.000011 28.079222 -0.000007 0.000000 0.000000 0.000000 
-1.258823 86.843277 3.952873 0.000000 0.000000 0.000000 -1.537255 -16.837222 -1.851019 -39.518792 16.102530 16.768231 54.510271 0.035202 9.183448 -15.860222 1.916499 -10.044609 0.000000 0.000000 0.000000 -1.537255 -16.837222 -1.851019 -30.116107 -20.918141 -15.919873 50.732787 -2.906086 -10.315437 -20.255614 -3.548753 15.045167 0.000000 0.000000 0.000000 -1.537255 -16.837222 -1.851019 0.000000 -0.000002 0.000000 3.716195 2.249448 -0.592788 2.785399 1.989157 -0.186987 0.000000 0.000000 0.000000 2.751003 2.043537 -0.210102 0.355886 0.116056 2.073301 0.000000 0.000000 0.000000 2.751003 2.043537 -0.210102 1.017816 -3.758635 21.178236 -66.257807 -44.789621 -66.873972 -0.000002 -37.199997 0.000002 0.000000 0.000000 0.000000 2.751003 2.043537 -0.210102 0.404732 -0.938104 -3.847634 -97.861366 65.982305 93.157319 0.000013 27.935706 -0.000014 0.000000 0.000000 0.000000 
-1.253919 86.863693 3.946335 0.000000 0.000000 0.000000 -1.518821 -16.791048 -1.878226 -39.572204 16.209844 16.698942 54.445022 -0.005530 9.426291 -15.804634 1.929577 -10.106010 0.000000 0.000000 0.000000 -1.518821 -16.791048 -1.878226 -29.933075 -20.678457 -15.686323 50.564683 -3.260123 -10.311941 -20.170001 -3.573852 15.199005 0.000000 0.000000 0.000000 -1.518821 -16.791048 -1.878226 0.000000 0.000001 0.000000 3.637977 2.215233 -0.608271 2.720138 1.964026 -0.202784 0.000000 0.000000 0.000000 2.686126 2.016985 -0.225833 0.325788 0.124624 2.061153 0.000000 0.000000 0.000000 2.686126 2.016985 -0.225833 0.892474 -3.360364 20.911726 -66.351811 -45.583439 -67.374263 0.000002 -36.601041 -0.000004 0.000000 0.000000 0.000000 2.686126 2.016985 -0.225833 0.404621 -0.911844 -4.116135 -97.947556 66.311725 93.575729 -0.000001 27.811132 -0.000007 0.000000 0.000000 0.000000 
-1.248814 86.885368 3.951221 0.000000 0.000000 0.000000 -1.548787 -16.801097 -1.895766 -39.542660 16.373553 16.647939 54.375546 -0.037375 9.646950 -15.785136 1.938056 -10.165270 0.000000 0.000000 0.000000 -1.548787 -16.801097 -1.895766 -29.785017 -20.507916 -15.551890 50.450885 -3.450208 -10.312540 -20.106634 -3.586473 15.291822 0.000000 0.000000 0.000000 -1.548787 -16.801097 -1.895766 0.000000 -0.000001 0.000000 3.589736 2.207283 -0.612584 2.678028 1.954680 -0.211602 0.000000 0.000000 0.000000 2.644455 2.006183 -0.234602 0.312167 0.126673 2.056004 0.000000 0.000000 0.000000 2.644455 2.006183 -0.234602 0.815016 -3.082162 20.528309 -66.428460 -46.419086 -67.774949 0.000007 -35.955215 0.000009 0.000000 0.000000 0.000000 2.644455 2.006183 -0.234602 0.419421 -0.806304 -4.465734 -97.703582 66.581196 93.623479 0.000002 27.694723 -0.000007 0.000000 0.000000 0.000000 
-1.241014 86.902061 3.959209 0.000000 0.000000 0.000000 -1.578255 -16.821040 -1.904045 -39.518542 16.564682 16.605786 54.319101 -0.080284 9.861852 -15.779064 1.940717 -10.212757 0.000000 0.000000 0.000000 -1.578255 -16.821040 -1.904045 -29.679641 -20.377267 -15.468198 50.372447 -3.579557 -10.314093 -20.059477 -3.590418 15.361551 0.000000 0.000000 0.000000 -1.578255 -16.821040 -1.904045 0.000000 -0.000001 0.000000 3.544616 2.202433 -0.626107 2.637117 1.947497 -0.222789 0.000000 0.000000 0.000000 2.604092 1.997330 -0.245805 0.291059 0.131619 2.050529 0.000000 0.000000 0.000000 2.604092 1.997330 -0.245805 0.743494 -2.807917 20.151240 -66.508817 -47.286960 -68.149155 -0.000009 -35.325855 -0.000002 0.000000 0.000000 0.000000 2.604092 1.997330 -0.245805 0.435964 -0.695856 -4.817861 -97.464887 66.838059 93.651347 -0.000002 27.564096 0.000002 0.000000 0.000000 0.000000 
-1.236386 86.913101 3.966438 0.000000 0.000000 0.000000 -1.595723 -16.832694 -1.902966 -39.514871 16.754719 16.568818 54.272239 -0.132993 10.064773 -15.772568 1.937470 -10.252522 0.000000 0.000000 0.000000 -1.595723 -16.832694 -1.902966 -29.610175 -20.276854 -15.414217 50.323191 -3.684537 -10.315537 -20.031295 -3.589258 15.417841 0.000000 0.000000 0.000000 -1.595723 -16.832694 -1.902966 0.000000 0.000000 0.000000 3.493431 2.190311 -0.647028 2.591978 1.934540 -0.238927 0.000000 0.000000 0.000000 2.559616 1.982527 -0.261822 0.267636 0.135744 2.046739 0.000000 0.000000 0.000000 2.559616 1.982527 -0.261822 0.669505 -2.514810 19.790664 -66.608039 -48.211703 -68.546269 -0.000002 -34.642798 -0.000005 0.000000 0.000000 0.000000 2.559616 1.982527 -0.261822 0.455459 -0.574685 -5.193520 -97.244388 67.110399 93.686276 -0.000008 27.418147 0.000006 0.000000 0.000000 0.000000 
-1.227959 86.918152 3.960281 0.000000 0.000000 0.000000 -1.598517 -16.831978 -1.899285 -39.552068 16.923341 16.546519 54.243412 -0.195806 10.233274 -15.754945 1.925675 -10.268809 0.000000 0.000000 0.000000 -1.598517 -16.831978 -1.899285 -29.569050 -20.166338 -15.355778 50.289877 -3.807446 -10.316308 -20.000505 -3.592670 15.476340 0.000000 0.000000 0.000000 -1.598517 -16.831978 -1.899285 0.000000 0.000001 0.000000 3.445027 2.175748 -0.663995 2.550966 1.919338 -0.255959 0.000000 0.000000 0.000000 2.519118 1.965794 -0.278554 0.255657 0.135210 2.048243 0.000000 0.000000 0.000000 2.519118 1.965794 -0.278554 0.597678 -2.215530 19.436133 -66.702507 -49.274583 -68.938069 0.000003 -33.852023 0.000001 0.000000 0.000000 0.000000 2.519118 1.965794 -0.278554 0.477612 -0.445219 -5.592291 -97.037058 67.410217 93.739750 0.000002 27.266602 -0.000010 0.000000 0.000000 0.000000 
